<svg width="38" height="41" viewBox="0 0 38 41" fill="none" xmlns="http://www.w3.org/2000/svg">
<path d="M35.619 40.0523C15.3564 40.0822 -0.0216544 23.8841 2.28889e-05 2.97822C2.28889e-05 1.61296 1.06335 0.5 2.37502 0.5H8.6435C9.82048 0.5 10.8203 1.40013 10.9932 2.61192C11.4074 5.51621 12.2198 8.34364 13.4057 11.0078L13.6497 11.5561C13.9891 12.3185 13.759 13.2243 13.1021 13.7126C11.1608 15.1556 10.4189 18.0601 11.9313 20.3265C13.8291 23.1705 16.2214 25.66 18.9531 27.6344C21.1304 29.2081 23.9205 28.436 25.3068 26.4158C25.7763 25.7316 26.647 25.4921 27.3799 25.8455L27.9043 26.0983C30.4641 27.3325 33.1808 28.1782 35.9713 28.6092C37.1356 28.7891 38 29.8297 38 31.0548V37.5802C38 38.9455 36.9341 40.0523 35.6224 40.0523L35.619 40.0523Z" fill="#292929"/>
</svg>
