<svg width="434" height="633" viewBox="0 0 434 633" fill="none" xmlns="http://www.w3.org/2000/svg">
<path d="M433.692 270.87C433.692 306.268 431.024 341.384 425.686 376.219C420.629 411.055 411.639 443.924 398.717 474.826C385.794 505.447 367.674 532.698 344.357 556.577C321.039 580.175 291.401 598.716 255.442 612.201C219.483 625.686 175.939 632.428 124.809 632.428C112.729 632.428 98.5424 631.866 82.2485 630.742C65.9545 629.9 52.4698 628.495 41.7945 626.528V522.022C53.0317 524.832 64.9712 527.079 77.6131 528.765C90.255 530.169 103.037 530.872 115.96 530.872C167.37 530.872 206.982 522.725 234.794 506.431C262.887 490.137 282.552 467.522 293.789 438.586C305.307 409.65 311.909 376.219 313.595 338.294H308.538C300.391 351.778 290.699 363.999 279.462 374.955C268.505 385.631 254.459 394.199 237.322 400.66C220.185 406.841 198.413 409.931 172.006 409.931C136.889 409.931 106.268 402.346 80.1415 387.176C54.2959 371.724 34.2093 349.531 19.8819 320.595C5.83537 291.378 -1.18789 256.122 -1.18789 214.825C-1.18789 170.157 7.24003 131.95 24.0959 100.205C41.2326 68.1791 65.5331 43.5977 96.9973 26.461C128.462 9.3242 165.544 0.75582 208.246 0.75582C239.71 0.75582 269.067 6.23396 296.317 17.1903C323.568 27.8656 347.447 44.3 367.955 66.4935C388.744 88.687 404.897 116.78 416.415 150.773C427.933 184.765 433.692 224.798 433.692 270.87ZM210.774 105.262C185.49 105.262 164.842 113.971 148.829 131.388C132.816 148.806 124.809 176.056 124.809 213.139C124.809 242.918 131.692 266.516 145.458 283.934C159.223 301.351 180.153 310.06 208.246 310.06C227.63 310.06 244.486 305.846 258.813 297.418C273.141 288.71 284.237 277.894 292.103 264.971C300.25 251.767 304.324 238.283 304.324 224.517C304.324 210.189 302.357 196.002 298.424 181.956C294.491 167.909 288.592 155.127 280.726 143.609C272.86 132.091 263.027 122.82 251.228 115.797C239.71 108.774 226.225 105.262 210.774 105.262Z" fill="#F4F1FC"/>
</svg>
