<svg width="1920" height="4191" viewBox="0 0 1920 4191" fill="none" xmlns="http://www.w3.org/2000/svg">
<path opacity="0.2" d="M1363.85 3395.37C1367.61 3398.65 1366.44 3404.76 1361.75 3406.4L1301.34 3427.51C1296.61 3429.16 1291.86 3425.05 1292.8 3420.13L1304.89 3356.76C1305.83 3351.83 1311.76 3349.8 1315.54 3353.11L1363.85 3395.37Z" stroke="#C1A2FF" stroke-width="3"/>
<path opacity="0.2" d="M1198.48 3276.85C1197.72 3281.83 1191.88 3284.12 1187.98 3280.97L1138.11 3240.6C1134.24 3237.47 1135.21 3231.29 1139.85 3229.46L1199.42 3206.04C1204.07 3204.21 1208.93 3208.11 1208.17 3213.06L1198.48 3276.85Z" stroke="#C1A2FF" stroke-width="3"/>
<path opacity="0.2" d="M1205.57 3085.53C1204.05 3090.33 1197.91 3091.67 1194.55 3087.94L1151.57 3040.17C1148.24 3036.46 1150.16 3030.52 1155.04 3029.45L1217.51 3015.76C1222.39 3014.69 1226.58 3019.3 1225.07 3024.07L1205.57 3085.53Z" stroke="#C1A2FF" stroke-width="3"/>
<path opacity="0.2" d="M1356.36 3029.7C1355.39 3034.64 1349.44 3036.67 1345.69 3033.35L1297.66 2990.76C1293.93 2987.46 1295.17 2981.33 1299.9 2979.71L1360.45 2959.02C1365.18 2957.4 1369.85 2961.51 1368.88 2966.42L1356.36 3029.7Z" stroke="#C1A2FF" stroke-width="3"/>
<path opacity="0.2" d="M1169.4 2837.78C1166.8 2842.08 1160.5 2841.91 1158.12 2837.48L1127.63 2780.77C1125.26 2776.37 1128.53 2771.06 1133.52 2771.19L1197.42 2772.89C1202.41 2773.02 1205.4 2778.5 1202.81 2782.76L1169.4 2837.78Z" stroke="#C1A2FF" stroke-width="3"/>
<path opacity="0.2" d="M1324 2777.96C1321.19 2782.12 1314.92 2781.66 1312.75 2777.12L1284.96 2719C1282.8 2714.49 1286.32 2709.35 1291.29 2709.72L1355.05 2714.48C1360.03 2714.86 1362.75 2720.47 1359.96 2724.61L1324 2777.96Z" stroke="#C1A2FF" stroke-width="3"/>
<path opacity="0.2" d="M1191.86 2624.95C1187.52 2627.42 1182.13 2624.21 1182.18 2619.18L1182.81 2554.65C1182.85 2549.63 1188.27 2546.57 1192.56 2549.13L1247.61 2581.94C1251.9 2584.5 1251.86 2590.77 1247.53 2593.23L1191.86 2624.95Z" stroke="#C1A2FF" stroke-width="3"/>
<path opacity="0.2" d="M1419.93 2642.74C1415.58 2640.34 1415.43 2634.12 1419.68 2631.52L1474.29 2597.98C1478.57 2595.35 1484.08 2598.35 1484.19 2603.36L1485.66 2667.88C1485.77 2672.9 1480.4 2676.15 1476.01 2673.72L1419.93 2642.74Z" stroke="#C1A2FF" stroke-width="3"/>
<path opacity="0.2" d="M1474.49 2896.29C1471.14 2892.59 1473 2886.65 1477.86 2885.57L1540.29 2871.71C1545.17 2870.62 1549.41 2875.26 1547.91 2880.05L1528.59 2941.56C1527.08 2946.34 1520.97 2947.67 1517.6 2943.94L1474.49 2896.29Z" stroke="#C1A2FF" stroke-width="3"/>
<path opacity="0.2" d="M1469.18 3280.33C1464.22 3280.81 1460.63 3275.71 1462.69 3271.14L1489.23 3212.42C1491.3 3207.84 1497.51 3207.23 1500.39 3211.32L1537.49 3263.88C1540.38 3267.97 1537.78 3273.69 1532.81 3274.17L1469.18 3280.33Z" stroke="#C1A2FF" stroke-width="3"/>
<path opacity="0.2" d="M1577.55 3143.75C1573.05 3145.9 1567.91 3142.32 1568.31 3137.3L1573.47 3072.98C1573.87 3067.98 1579.49 3065.3 1583.59 3068.16L1636.19 3104.83C1640.29 3107.69 1639.81 3113.94 1635.31 3116.09L1577.55 3143.75Z" stroke="#C1A2FF" stroke-width="3"/>
<path opacity="0.2" d="M1576.93 2853.28C1573.08 2850.11 1574.06 2843.97 1578.7 2842.19L1638.45 2819.23C1643.13 2817.44 1648 2821.4 1647.21 2826.35L1637.03 2890.06C1636.23 2895.01 1630.37 2897.23 1626.49 2894.04L1576.93 2853.28Z" stroke="#C1A2FF" stroke-width="3"/>
<path opacity="0.2" d="M1721.94 2743.95C1721.39 2738.95 1726.42 2735.21 1730.99 2737.23L1789.55 2763.09C1794.11 2765.1 1794.79 2771.34 1790.78 2774.32L1739.3 2812.6C1735.29 2815.58 1729.59 2813.07 1729.04 2808.09L1721.94 2743.95Z" stroke="#C1A2FF" stroke-width="3"/>
<path opacity="0.2" d="M1774.91 3760.21C1772.38 3755.89 1775.42 3750.44 1780.39 3750.39L1844.31 3749.69C1849.31 3749.64 1852.5 3755.05 1850.06 3759.42L1818.7 3815.66C1816.26 3820.03 1810.02 3820.08 1807.47 3815.74L1774.91 3760.21Z" stroke="#C1A2FF" stroke-width="3"/>
<path opacity="0.2" d="M1575.07 4063C1571.39 4059.62 1572.71 4053.54 1577.45 4052.02L1638.37 4032.47C1643.14 4030.94 1647.79 4035.17 1646.72 4040.07L1633.03 4103.1C1631.97 4108.01 1625.99 4109.88 1622.3 4106.48L1575.07 4063Z" stroke="#C1A2FF" stroke-width="3"/>
<path opacity="0.2" d="M1385.83 4025.8C1384.08 4021.09 1388.03 4016.25 1392.94 4017.07L1456 4027.68C1460.92 4028.51 1463.11 4034.4 1459.95 4038.28L1419.32 4088.1C1416.15 4091.98 1410.01 4090.94 1408.26 4086.23L1385.83 4025.8Z" stroke="#C1A2FF" stroke-width="3"/>
<path opacity="0.2" d="M1230.68 4041.63C1225.76 4040.93 1223.44 4035.15 1226.5 4031.2L1265.84 3980.33C1268.92 3976.35 1275.11 3977.2 1276.98 3981.86L1300.94 4041.68C1302.8 4046.34 1298.94 4051.29 1293.99 4050.59L1230.68 4041.63Z" stroke="#C1A2FF" stroke-width="3"/>
<path opacity="0.2" d="M1432.91 3770.69C1428.39 3768.62 1427.77 3762.44 1431.8 3759.52L1483.65 3722.01C1487.71 3719.07 1493.44 3721.65 1493.94 3726.64L1500.34 3790.91C1500.83 3795.91 1495.73 3799.55 1491.16 3797.45L1432.91 3770.69Z" stroke="#C1A2FF" stroke-width="3"/>
<path opacity="0.2" d="M1275.42 3872.49C1272.22 3868.63 1274.29 3862.76 1279.17 3861.9L1341.86 3850.78C1346.76 3849.91 1350.82 3854.75 1349.15 3859.48L1327.67 3920.28C1326 3925 1319.86 3926.06 1316.64 3922.18L1275.42 3872.49Z" stroke="#C1A2FF" stroke-width="3"/>
<path opacity="0.2" d="M940.882 4063.65C940.005 4058.65 944.774 4054.55 949.437 4056.29L1009.18 4078.58C1013.82 4080.31 1014.88 4086.52 1011.09 4089.77L962.57 4131.48C958.783 4134.73 952.982 4132.6 952.111 4127.64L940.882 4063.65Z" stroke="#C1A2FF" stroke-width="3"/>
<path opacity="0.2" d="M577.039 4203.65C576.162 4198.65 580.931 4194.55 585.594 4196.29L645.341 4218.58C649.976 4220.31 651.032 4226.52 647.245 4229.77L598.727 4271.48C594.94 4274.73 589.139 4272.6 588.268 4267.64L577.039 4203.65Z" stroke="#C1A2FF" stroke-width="3"/>
<path opacity="0.2" d="M1816.07 4103.65C1815.19 4098.65 1819.96 4094.55 1824.63 4096.29L1884.37 4118.58C1889.01 4120.31 1890.06 4126.52 1886.28 4129.77L1837.76 4171.48C1833.97 4174.73 1828.17 4172.6 1827.3 4167.64L1816.07 4103.65Z" stroke="#C1A2FF" stroke-width="3"/>
<path opacity="0.2" d="M1214.02 4201.91C1212.4 4197.16 1216.47 4192.42 1221.36 4193.38L1284.12 4205.61C1289.02 4206.57 1291.06 4212.51 1287.8 4216.3L1245.92 4265.06C1242.65 4268.86 1236.54 4267.66 1234.91 4262.91L1214.02 4201.91Z" stroke="#C1A2FF" stroke-width="3"/>
<path opacity="0.2" d="M1114.96 3657.91C1113.34 3653.16 1117.41 3648.42 1122.3 3649.38L1185.07 3661.61C1189.96 3662.57 1192 3668.51 1188.74 3672.3L1146.86 3721.06C1143.59 3724.86 1137.48 3723.66 1135.85 3718.91L1114.96 3657.91Z" stroke="#C1A2FF" stroke-width="3"/>
<path opacity="0.2" d="M1141.92 3906.17C1144.15 3901.66 1150.43 3901.28 1153.18 3905.48L1188.41 3959.33C1191.15 3963.51 1188.34 3969.08 1183.36 3969.38L1119.55 3973.26C1114.57 3973.56 1111.12 3968.37 1113.34 3963.89L1141.92 3906.17Z" stroke="#C1A2FF" stroke-width="3"/>
<path opacity="0.2" d="M993.33 3846.17C995.562 3841.66 1001.84 3841.28 1004.59 3845.48L1039.82 3899.33C1042.56 3903.51 1039.75 3909.08 1034.77 3909.38L970.96 3913.26C965.977 3913.56 962.534 3908.37 964.75 3903.89L993.33 3846.17Z" stroke="#C1A2FF" stroke-width="3"/>
<path opacity="0.2" d="M1038.9 4180.17C1041.13 4175.66 1047.41 4175.28 1050.16 4179.48L1085.39 4233.33C1088.12 4237.51 1085.32 4243.08 1080.34 4243.38L1016.53 4247.26C1011.54 4247.56 1008.1 4242.37 1010.32 4237.89L1038.9 4180.17Z" stroke="#C1A2FF" stroke-width="3"/>
<path opacity="0.2" d="M770.92 4079.38C775.75 4080.56 777.486 4086.54 774.056 4090.17L729.931 4136.86C726.48 4140.52 720.395 4139.06 718.996 4134.24L700.999 4072.32C699.6 4067.51 703.94 4062.96 708.798 4064.15L770.92 4079.38Z" stroke="#C1A2FF" stroke-width="3"/>
<path opacity="0.2" d="M890.302 3711.74C894.822 3713.82 895.409 3720.01 891.362 3722.92L839.298 3760.37C835.223 3763.3 829.514 3760.71 829.04 3755.72L822.949 3691.48C822.475 3686.48 827.594 3682.85 832.146 3684.95L890.302 3711.74Z" stroke="#C1A2FF" stroke-width="3"/>
<path opacity="0.2" d="M721.033 3705.64C720.562 3710.66 714.86 3713.29 710.796 3710.37L658.699 3672.97C654.654 3670.06 655.264 3663.83 659.8 3661.74L717.934 3634.89C722.47 3632.8 727.539 3636.41 727.07 3641.4L721.033 3705.64Z" stroke="#C1A2FF" stroke-width="3"/>
<path opacity="0.2" d="M827.558 3315.18C823.107 3317.44 817.879 3313.98 818.161 3308.96L821.786 3244.52C822.068 3239.52 827.621 3236.71 831.79 3239.47L885.252 3274.85C889.42 3277.61 889.083 3283.87 884.644 3286.13L827.558 3315.18Z" stroke="#C1A2FF" stroke-width="3"/>
<path opacity="0.2" d="M659.535 3234.78C655.061 3232.6 654.61 3226.4 658.719 3223.58L711.588 3187.3C715.726 3184.46 721.378 3187.17 721.742 3192.18L726.429 3256.54C726.794 3261.54 721.596 3265.06 717.091 3262.86L659.535 3234.78Z" stroke="#C1A2FF" stroke-width="3"/>
<path opacity="0.2" d="M995.527 3236.84C992.864 3241.1 986.576 3240.85 984.252 3236.39L954.485 3179.28C952.178 3174.86 955.514 3169.59 960.502 3169.79L1024.38 3172.32C1029.37 3172.52 1032.28 3178.03 1029.64 3182.26L995.527 3236.84Z" stroke="#C1A2FF" stroke-width="3"/>
<path opacity="0.2" d="M1024.65 3037.71C1019.83 3036.49 1018.14 3030.5 1021.6 3026.9L1066.1 2980.57C1069.58 2976.95 1075.65 2978.46 1077.01 2983.28L1094.51 3045.35C1095.87 3050.18 1091.49 3054.69 1086.64 3053.46L1024.65 3037.71Z" stroke="#C1A2FF" stroke-width="3"/>
<path opacity="0.2" d="M507.486 3044.6C504.486 3040.6 506.889 3034.86 511.822 3034.23L575.257 3026.24C580.215 3025.62 584.007 3030.63 582.073 3035.26L557.209 3094.71C555.276 3099.33 549.072 3100.09 546.057 3096.07L507.486 3044.6Z" stroke="#C1A2FF" stroke-width="3"/>
<path opacity="0.2" d="M359.887 2992.6C356.887 2988.6 359.29 2982.86 364.223 2982.23L427.659 2974.24C432.617 2973.62 436.408 2978.63 434.475 2983.26L409.611 3042.71C407.677 3047.33 401.473 3048.09 398.458 3044.07L359.887 2992.6Z" stroke="#C1A2FF" stroke-width="3"/>
<path opacity="0.2" d="M466.871 2720.6C463.871 2716.6 466.274 2710.86 471.208 2710.23L534.643 2702.24C539.601 2701.62 543.393 2706.63 541.459 2711.26L516.595 2770.71C514.661 2775.33 508.457 2776.09 505.443 2772.07L466.871 2720.6Z" stroke="#C1A2FF" stroke-width="3"/>
<path opacity="0.2" d="M448.238 2519.69C450.211 2515.07 456.459 2514.32 459.443 2518.36L497.656 2570.1C500.619 2574.11 498.136 2579.84 493.179 2580.43L429.69 2587.97C424.733 2588.55 421.001 2583.57 422.961 2578.97L448.238 2519.69Z" stroke="#C1A2FF" stroke-width="3"/>
<path opacity="0.2" d="M304.799 2678.76C308.4 2675.27 314.434 2677.04 315.625 2681.93L330.883 2744.6C332.067 2749.46 327.573 2753.77 322.781 2752.37L261.389 2734.37C256.597 2732.97 255.087 2726.9 258.666 2723.43L304.799 2678.76Z" stroke="#C1A2FF" stroke-width="3"/>
<path opacity="0.2" d="M317.348 2908.73C322.272 2909.42 324.594 2915.2 321.54 2919.16L282.258 2970.07C279.188 2974.05 272.994 2973.21 271.125 2968.56L247.088 2908.76C245.218 2904.11 249.08 2899.15 254.029 2899.84L317.348 2908.73Z" stroke="#C1A2FF" stroke-width="3"/>
<path opacity="0.2" d="M127.177 2856.43C130.006 2852.28 136.278 2852.78 138.426 2857.33L165.928 2915.58C168.06 2920.1 164.52 2925.23 159.544 2924.83L95.8162 2919.75C90.84 2919.35 88.1422 2913.72 90.9512 2909.6L127.177 2856.43Z" stroke="#C1A2FF" stroke-width="3"/>
<path opacity="0.2" d="M66.7046 2607.49C70.0999 2603.8 76.2282 2605.22 77.698 2610.03L96.5261 2671.7C97.9867 2676.49 93.7468 2681.05 88.8815 2679.92L26.5609 2665.55C21.6956 2664.43 19.8383 2658.46 23.212 2654.79L66.7046 2607.49Z" stroke="#C1A2FF" stroke-width="3"/>
<path opacity="0.2" d="M81.5381 3098.02C83.3731 3093.34 89.5952 3092.41 92.6975 3096.35L132.432 3146.91C135.513 3150.83 133.203 3156.63 128.265 3157.37L65.0294 3166.83C60.0919 3167.56 56.2141 3162.69 58.0366 3158.04L81.5381 3098.02Z" stroke="#C1A2FF" stroke-width="3"/>
<path opacity="0.2" d="M147.114 3226.71C149.646 3222.36 155.939 3222.42 158.399 3226.8L189.907 3282.95C192.35 3287.3 189.178 3292.67 184.186 3292.63L120.262 3292.1C115.27 3292.06 112.185 3286.64 114.698 3282.33L147.114 3226.71Z" stroke="#C1A2FF" stroke-width="3"/>
<path opacity="0.2" d="M241.222 3518.49C245.9 3516.76 250.686 3520.8 249.83 3525.75L238.847 3589.33C237.992 3594.27 232.15 3596.43 228.327 3593.2L179.279 3551.81C175.456 3548.59 176.518 3542.4 181.191 3540.67L241.222 3518.49Z" stroke="#C1A2FF" stroke-width="3"/>
<path opacity="0.2" d="M401.759 3223.51C405.176 3219.84 411.295 3221.29 412.738 3226.11L431.212 3287.89C432.646 3292.69 428.38 3297.22 423.521 3296.07L361.284 3281.33C356.425 3280.18 354.602 3274.2 357.997 3270.55L401.759 3223.51Z" stroke="#C1A2FF" stroke-width="3"/>
<path opacity="0.2" d="M539.595 3411.45C544.569 3411.36 547.763 3416.72 545.355 3421.11L514.408 3477.58C511.992 3481.99 505.752 3482.12 503.187 3477.82L470.217 3422.53C467.651 3418.23 470.688 3412.72 475.678 3412.63L539.595 3411.45Z" stroke="#C1A2FF" stroke-width="3"/>
<path opacity="0.2" d="M402.922 3706.18C406.612 3709.54 405.325 3715.63 400.598 3717.17L339.781 3737.06C335.023 3738.61 330.354 3734.41 331.392 3729.5L344.741 3666.39C345.779 3661.49 351.741 3659.57 355.455 3662.96L402.922 3706.18Z" stroke="#C1A2FF" stroke-width="3"/>
<path opacity="0.2" d="M389.749 3910.79C392.749 3914.79 390.347 3920.54 385.414 3921.16L321.98 3929.16C317.022 3929.79 313.23 3924.77 315.163 3920.15L340.016 3860.69C341.949 3856.07 348.153 3855.31 351.168 3859.33L389.749 3910.79Z" stroke="#C1A2FF" stroke-width="3"/>
<path opacity="0.2" d="M242.551 3949.46C246.527 3952.47 245.793 3958.64 241.224 3960.62L182.447 3985.99C177.847 3987.98 172.816 3984.22 173.409 3979.24L181.03 3915.16C181.622 3910.18 187.391 3907.73 191.394 3910.76L242.551 3949.46Z" stroke="#C1A2FF" stroke-width="3"/>
<path opacity="0.2" d="M253.87 4222.74C255.73 4227.4 251.903 4232.34 246.975 4231.64L183.678 4222.59C178.742 4221.89 176.404 4216.06 179.472 4212.1L218.877 4161.28C221.945 4157.33 228.115 4158.22 229.978 4162.89L253.87 4222.74Z" stroke="#C1A2FF" stroke-width="3"/>
<path opacity="0.2" d="M412 4166.66C414.247 4171.14 410.857 4176.38 405.89 4176.1L342.059 4172.55C337.077 4172.27 334.246 4166.66 336.967 4162.46L371.93 4108.43C374.651 4104.22 380.88 4104.59 383.133 4109.08L412 4166.66Z" stroke="#C1A2FF" stroke-width="3"/>
<path opacity="0.2" d="M476.325 3964.94C472.969 3968.67 466.826 3967.32 465.305 3962.52L445.826 3901.06C444.315 3896.29 448.506 3891.69 453.383 3892.76L515.853 3906.46C520.73 3907.53 522.65 3913.47 519.315 3917.18L476.325 3964.94Z" stroke="#C1A2FF" stroke-width="3"/>
<path opacity="0.2" d="M581.667 3768.67C584.259 3772.95 581.297 3778.44 576.325 3778.56L512.416 3780.14C507.425 3780.27 504.154 3774.9 506.535 3770.49L537.132 3713.83C539.512 3709.42 545.754 3709.29 548.356 3713.59L581.667 3768.67Z" stroke="#C1A2FF" stroke-width="3"/>
<path opacity="0.2" d="M1763.05 3258.94C1761.78 3263.85 1755.66 3265.51 1752.13 3261.91L1707 3215.94C1703.52 3212.4 1705.16 3206.39 1709.96 3205.08L1771.28 3188.38C1776.08 3187.07 1780.48 3191.43 1779.23 3196.26L1763.05 3258.94Z" stroke="#C1A2FF" stroke-width="3"/>
<path opacity="0.2" d="M1572.33 3422.18C1569.48 3426.35 1563.16 3425.78 1561.06 3421.16L1534.21 3362.22C1532.14 3357.68 1535.72 3352.62 1540.67 3353.07L1603.89 3358.81C1608.85 3359.26 1611.51 3364.88 1608.71 3368.98L1572.33 3422.18Z" stroke="#C1A2FF" stroke-width="3"/>
<path opacity="0.2" d="M1424.83 3622.18C1421.98 3626.35 1415.66 3625.78 1413.55 3621.16L1386.71 3562.22C1384.64 3557.68 1388.21 3552.62 1393.17 3553.07L1456.39 3558.81C1461.34 3559.26 1464.01 3564.88 1461.21 3568.98L1424.83 3622.18Z" stroke="#C1A2FF" stroke-width="3"/>
<path opacity="0.2" d="M1756.17 3526.68C1751.54 3528.56 1746.65 3524.6 1747.39 3519.58L1756.92 3455.35C1757.66 3450.37 1763.4 3448.08 1767.28 3451.22L1816.94 3491.43C1820.82 3494.57 1819.94 3500.8 1815.35 3502.66L1756.17 3526.68Z" stroke="#C1A2FF" stroke-width="3"/>
<path opacity="0.2" d="M1621.21 3701.47C1617.43 3704.79 1611.47 3702.64 1610.57 3697.64L1598.99 3633.75C1598.1 3628.83 1602.8 3624.81 1607.48 3626.5L1667.31 3648.06C1672 3649.75 1673.19 3655.88 1669.47 3659.15L1621.21 3701.47Z" stroke="#C1A2FF" stroke-width="3"/>
<path opacity="0.2" d="M1658.62 3977.09C1657.86 3982.1 1651.96 3984.39 1648.08 3981.19L1598.53 3940.19C1594.7 3937.03 1595.72 3930.88 1600.36 3929.07L1659.65 3906.02C1664.29 3904.21 1669.11 3908.1 1668.36 3913.04L1658.62 3977.09Z" stroke="#C1A2FF" stroke-width="3"/>
<path opacity="0.2" d="M1054.7 3532.05C1051.25 3535.71 1045.11 3534.15 1043.73 3529.26L1026.2 3466.8C1024.84 3461.99 1029.14 3457.55 1033.97 3458.77L1095.55 3474.4C1100.38 3475.63 1102.15 3481.61 1098.75 3485.22L1054.7 3532.05Z" stroke="#C1A2FF" stroke-width="3"/>
<path opacity="0.2" d="M867.865 3412.05C864.415 3415.71 858.268 3414.15 856.894 3409.26L839.358 3346.8C838.006 3341.99 842.305 3337.55 847.129 3338.77L908.715 3354.4C913.539 3355.63 915.309 3361.61 911.914 3365.22L867.865 3412.05Z" stroke="#C1A2FF" stroke-width="3"/>
<path opacity="0.2" d="M808.863 3062.05C805.413 3065.71 799.266 3064.15 797.892 3059.26L780.356 2996.8C779.005 2991.99 783.304 2987.55 788.127 2988.77L849.713 3004.4C854.537 3005.63 856.307 3011.61 852.912 3015.22L808.863 3062.05Z" stroke="#C1A2FF" stroke-width="3"/>
<path opacity="0.2" d="M710.527 2772.05C707.078 2775.71 700.93 2774.15 699.557 2769.26L682.02 2706.8C680.669 2701.99 684.968 2697.55 689.792 2698.77L751.378 2714.4C756.201 2715.63 757.971 2721.61 754.577 2725.22L710.527 2772.05Z" stroke="#C1A2FF" stroke-width="3"/>
<path opacity="0.2" d="M940.795 2669.47C935.853 2669.95 932.28 2664.81 934.368 2660.22L961.167 2601.25C963.253 2596.66 969.425 2596.06 972.279 2600.16L1008.91 2652.88C1011.77 2656.99 1009.17 2662.73 1004.23 2663.22L940.795 2669.47Z" stroke="#C1A2FF" stroke-width="3"/>
<path opacity="0.2" d="M1717.65 2629.47C1712.71 2629.95 1709.13 2624.81 1711.22 2620.22L1738.02 2561.25C1740.11 2556.66 1746.28 2556.06 1749.13 2560.16L1785.77 2612.88C1788.62 2616.99 1786.02 2622.73 1781.08 2623.22L1717.65 2629.47Z" stroke="#C1A2FF" stroke-width="3"/>
<path opacity="0.2" d="M63.5042 3781.95C58.5617 3782.43 54.9896 3777.29 57.0777 3772.7L83.8758 3713.73C85.9619 3709.14 92.1342 3708.54 94.9886 3712.65L131.623 3765.36C134.478 3769.47 131.875 3775.21 126.937 3775.7L63.5042 3781.95Z" stroke="#C1A2FF" stroke-width="3"/>
<path opacity="0.2" d="M53.6136 3483.77C50.5358 3479.82 52.8283 3474.02 57.749 3473.31L120.999 3464.23C125.939 3463.52 129.821 3468.47 127.978 3473.13L104.29 3533.02C102.447 3537.68 96.2663 3538.54 93.1761 3534.58L53.6136 3483.77Z" stroke="#C1A2FF" stroke-width="3"/>
<path opacity="0.2" d="M1363.85 1424.37C1367.61 1427.65 1366.44 1433.76 1361.75 1435.4L1301.34 1456.51C1296.61 1458.16 1291.86 1454.05 1292.8 1449.13L1304.89 1385.76C1305.83 1380.83 1311.76 1378.8 1315.54 1382.11L1363.85 1424.37Z" stroke="#C1A2FF" stroke-width="3"/>
<path opacity="0.2" d="M1198.48 1305.85C1197.72 1310.82 1191.88 1313.12 1187.98 1309.97L1138.11 1269.6C1134.24 1266.47 1135.21 1260.29 1139.85 1258.46L1199.42 1235.04C1204.07 1233.21 1208.93 1237.11 1208.17 1242.06L1198.48 1305.85Z" stroke="#C1A2FF" stroke-width="3"/>
<path opacity="0.2" d="M1205.57 1114.53C1204.05 1119.32 1197.91 1120.67 1194.55 1116.94L1151.57 1069.17C1148.24 1065.46 1150.16 1059.52 1155.04 1058.45L1217.51 1044.76C1222.39 1043.69 1226.58 1048.3 1225.07 1053.07L1205.57 1114.53Z" stroke="#C1A2FF" stroke-width="3"/>
<path opacity="0.2" d="M1356.36 1058.7C1355.39 1063.64 1349.44 1065.67 1345.69 1062.35L1297.66 1019.76C1293.93 1016.46 1295.17 1010.33 1299.9 1008.71L1360.45 988.015C1365.18 986.4 1369.85 990.506 1368.88 995.418L1356.36 1058.7Z" stroke="#C1A2FF" stroke-width="3"/>
<path opacity="0.2" d="M1169.4 866.783C1166.8 871.079 1160.5 870.912 1158.12 866.484L1127.63 809.767C1125.26 805.37 1128.53 800.061 1133.52 800.193L1197.42 801.889C1202.41 802.021 1205.4 807.496 1202.81 811.762L1169.4 866.783Z" stroke="#C1A2FF" stroke-width="3"/>
<path opacity="0.2" d="M1324 806.958C1321.19 811.124 1314.92 810.655 1312.75 806.117L1284.96 748C1282.8 743.494 1286.32 738.348 1291.29 738.719L1355.05 743.483C1360.03 743.855 1362.75 749.467 1359.96 753.604L1324 806.958Z" stroke="#C1A2FF" stroke-width="3"/>
<path opacity="0.2" d="M1191.86 653.947C1187.52 656.421 1182.13 653.209 1182.18 648.176L1182.81 583.645C1182.85 578.629 1188.27 575.565 1192.56 578.124L1247.61 610.938C1251.9 613.497 1251.86 619.765 1247.53 622.23L1191.86 653.947Z" stroke="#C1A2FF" stroke-width="3"/>
<path opacity="0.2" d="M1419.93 671.743C1415.58 669.336 1415.43 663.121 1419.68 660.515L1474.29 626.976C1478.57 624.35 1484.08 627.35 1484.19 632.364L1485.66 696.88C1485.77 701.895 1480.4 705.145 1476.01 702.721L1419.93 671.743Z" stroke="#C1A2FF" stroke-width="3"/>
<path opacity="0.2" d="M1474.49 925.289C1471.14 921.584 1473 915.647 1477.86 914.569L1540.29 900.706C1545.17 899.622 1549.41 904.261 1547.91 909.044L1528.59 970.559C1527.08 975.342 1520.97 976.667 1517.6 972.941L1474.49 925.289Z" stroke="#C1A2FF" stroke-width="3"/>
<path opacity="0.2" d="M1469.18 1309.33C1464.22 1309.8 1460.63 1304.71 1462.69 1300.13L1489.23 1241.42C1491.3 1236.84 1497.51 1236.23 1500.39 1240.32L1537.49 1292.88C1540.38 1296.97 1537.78 1302.69 1532.81 1303.17L1469.18 1309.33Z" stroke="#C1A2FF" stroke-width="3"/>
<path opacity="0.2" d="M1577.55 1172.75C1573.05 1174.9 1567.91 1171.32 1568.31 1166.3L1573.47 1101.98C1573.87 1096.97 1579.49 1094.3 1583.59 1097.16L1636.19 1133.83C1640.29 1136.69 1639.8 1142.94 1635.31 1145.09L1577.55 1172.75Z" stroke="#C1A2FF" stroke-width="3"/>
<path opacity="0.2" d="M1576.93 882.278C1573.08 879.11 1574.06 872.97 1578.7 871.186L1638.45 848.234C1643.13 846.437 1648 850.398 1647.21 855.351L1637.03 919.06C1636.23 924.012 1630.37 926.225 1626.49 923.035L1576.93 882.278Z" stroke="#C1A2FF" stroke-width="3"/>
<path opacity="0.2" d="M1721.94 772.948C1721.39 767.949 1726.42 764.21 1730.99 766.226L1789.55 792.091C1794.11 794.103 1794.79 800.34 1790.78 803.323L1739.3 841.594C1735.29 844.578 1729.59 842.073 1729.04 837.084L1721.94 772.948Z" stroke="#C1A2FF" stroke-width="3"/>
<path opacity="0.2" d="M1774.91 1789.21C1772.38 1784.89 1775.42 1779.44 1780.39 1779.39L1844.31 1778.69C1849.31 1778.64 1852.5 1784.05 1850.06 1788.42L1818.7 1844.66C1816.26 1849.03 1810.02 1849.08 1807.47 1844.74L1774.91 1789.21Z" stroke="#C1A2FF" stroke-width="3"/>
<path opacity="0.2" d="M1648.44 2385.98C1643.59 2387.11 1639.35 2382.52 1640.8 2377.71L1659.49 2315.99C1660.94 2311.18 1667.01 2309.77 1670.41 2313.44L1714.01 2360.64C1717.41 2364.31 1715.58 2370.32 1710.73 2371.45L1648.44 2385.98Z" stroke="#C1A2FF" stroke-width="3"/>
<path opacity="0.2" d="M1453.32 2298.07C1451.81 2293.28 1456 2288.64 1460.86 2289.71L1523.31 2303.53C1528.18 2304.6 1530.07 2310.59 1526.71 2314.31L1483.64 2362C1480.29 2365.71 1474.2 2364.36 1472.69 2359.57L1453.32 2298.07Z" stroke="#C1A2FF" stroke-width="3"/>
<path opacity="0.2" d="M1575.07 2092C1571.39 2088.62 1572.71 2082.54 1577.45 2081.02L1638.37 2061.47C1643.14 2059.94 1647.79 2064.17 1646.72 2069.07L1633.03 2132.1C1631.97 2137.01 1625.99 2138.88 1622.3 2135.48L1575.07 2092Z" stroke="#C1A2FF" stroke-width="3"/>
<path opacity="0.2" d="M1385.83 2054.8C1384.08 2050.09 1388.03 2045.25 1392.94 2046.07L1456 2056.68C1460.92 2057.51 1463.11 2063.4 1459.95 2067.28L1419.32 2117.1C1416.15 2120.98 1410.01 2119.94 1408.26 2115.23L1385.83 2054.8Z" stroke="#C1A2FF" stroke-width="3"/>
<path opacity="0.2" d="M1230.68 2070.63C1225.76 2069.93 1223.44 2064.15 1226.5 2060.2L1265.84 2009.33C1268.92 2005.35 1275.11 2006.2 1276.98 2010.86L1300.94 2070.68C1302.8 2075.34 1298.94 2080.29 1293.99 2079.59L1230.68 2070.63Z" stroke="#C1A2FF" stroke-width="3"/>
<path opacity="0.2" d="M1432.91 1799.69C1428.39 1797.62 1427.77 1791.44 1431.8 1788.52L1483.65 1751.01C1487.71 1748.07 1493.44 1750.65 1493.94 1755.64L1500.34 1819.91C1500.83 1824.91 1495.73 1828.55 1491.16 1826.45L1432.91 1799.69Z" stroke="#C1A2FF" stroke-width="3"/>
<path opacity="0.2" d="M1275.42 1901.49C1272.22 1897.63 1274.29 1891.76 1279.17 1890.9L1341.86 1879.78C1346.76 1878.91 1350.82 1883.75 1349.15 1888.48L1327.67 1949.28C1326 1954 1319.86 1955.06 1316.64 1951.18L1275.42 1901.49Z" stroke="#C1A2FF" stroke-width="3"/>
<path opacity="0.2" d="M940.882 2092.65C940.005 2087.65 944.774 2083.55 949.437 2085.29L1009.18 2107.58C1013.82 2109.31 1014.87 2115.52 1011.09 2118.77L962.57 2160.48C958.783 2163.73 952.982 2161.6 952.111 2156.64L940.882 2092.65Z" stroke="#C1A2FF" stroke-width="3"/>
<path opacity="0.2" d="M577.039 2232.65C576.162 2227.65 580.931 2223.55 585.594 2225.29L645.341 2247.58C649.976 2249.31 651.032 2255.52 647.245 2258.77L598.727 2300.48C594.94 2303.73 589.139 2301.6 588.268 2296.64L577.039 2232.65Z" stroke="#C1A2FF" stroke-width="3"/>
<path opacity="0.2" d="M744.21 2332.65C743.333 2327.65 748.102 2323.55 752.765 2325.29L812.512 2347.58C817.147 2349.31 818.203 2355.52 814.416 2358.77L765.898 2400.48C762.111 2403.73 756.31 2401.6 755.439 2396.64L744.21 2332.65Z" stroke="#C1A2FF" stroke-width="3"/>
<path opacity="0.2" d="M1816.07 2132.65C1815.19 2127.65 1819.96 2123.55 1824.63 2125.29L1884.37 2147.58C1889.01 2149.31 1890.06 2155.52 1886.28 2158.77L1837.76 2200.48C1833.97 2203.73 1828.17 2201.6 1827.3 2196.64L1816.07 2132.65Z" stroke="#C1A2FF" stroke-width="3"/>
<path opacity="0.2" d="M1214.02 2230.91C1212.4 2226.16 1216.47 2221.42 1221.36 2222.38L1284.12 2234.61C1289.02 2235.57 1291.06 2241.51 1287.8 2245.3L1245.92 2294.06C1242.65 2297.86 1236.54 2296.66 1234.91 2291.91L1214.02 2230.91Z" stroke="#C1A2FF" stroke-width="3"/>
<path opacity="0.2" d="M1114.96 1686.91C1113.34 1682.16 1117.41 1677.42 1122.3 1678.38L1185.06 1690.61C1189.96 1691.57 1192 1697.51 1188.74 1701.3L1146.86 1750.06C1143.59 1753.86 1137.48 1752.66 1135.85 1747.91L1114.96 1686.91Z" stroke="#C1A2FF" stroke-width="3"/>
<path opacity="0.2" d="M1141.92 1935.17C1144.15 1930.66 1150.43 1930.28 1153.18 1934.48L1188.41 1988.33C1191.15 1992.51 1188.34 1998.08 1183.36 1998.38L1119.55 2002.26C1114.57 2002.56 1111.12 1997.37 1113.34 1992.89L1141.92 1935.17Z" stroke="#C1A2FF" stroke-width="3"/>
<path opacity="0.2" d="M993.33 1875.17C995.562 1870.66 1001.84 1870.28 1004.59 1874.48L1039.82 1928.33C1042.56 1932.51 1039.75 1938.08 1034.77 1938.38L970.96 1942.26C965.977 1942.56 962.533 1937.37 964.749 1932.89L993.33 1875.17Z" stroke="#C1A2FF" stroke-width="3"/>
<path opacity="0.2" d="M1038.9 2209.17C1041.13 2204.66 1047.41 2204.28 1050.16 2208.48L1085.39 2262.33C1088.12 2266.51 1085.32 2272.08 1080.34 2272.38L1016.53 2276.26C1011.54 2276.56 1008.1 2271.37 1010.32 2266.89L1038.9 2209.17Z" stroke="#C1A2FF" stroke-width="3"/>
<path opacity="0.2" d="M1115.39 2382.89C1120.22 2381.65 1124.56 2386.16 1123.2 2390.99L1105.81 2453.09C1104.46 2457.93 1098.42 2459.48 1094.95 2455.87L1050.37 2409.62C1046.9 2406.02 1048.59 2399.97 1053.42 2398.73L1115.39 2382.89Z" stroke="#C1A2FF" stroke-width="3"/>
<path opacity="0.2" d="M770.92 2108.38C775.749 2109.56 777.486 2115.54 774.056 2119.17L729.931 2165.86C726.48 2169.52 720.395 2168.06 718.996 2163.24L700.999 2101.32C699.6 2096.51 703.939 2091.96 708.798 2093.15L770.92 2108.38Z" stroke="#C1A2FF" stroke-width="3"/>
<path opacity="0.2" d="M890.302 1740.74C894.822 1742.82 895.408 1749.01 891.362 1751.92L839.298 1789.37C835.223 1792.3 829.514 1789.71 829.04 1784.72L822.948 1720.48C822.475 1715.48 827.594 1711.85 832.146 1713.95L890.302 1740.74Z" stroke="#C1A2FF" stroke-width="3"/>
<path opacity="0.2" d="M721.033 1734.64C720.561 1739.66 714.86 1742.29 710.796 1739.37L658.699 1701.97C654.654 1699.06 655.264 1692.83 659.8 1690.74L717.934 1663.89C722.47 1661.8 727.539 1665.41 727.07 1670.4L721.033 1734.64Z" stroke="#C1A2FF" stroke-width="3"/>
<path opacity="0.2" d="M827.558 1344.18C823.107 1346.44 817.879 1342.98 818.161 1337.96L821.786 1273.52C822.068 1268.52 827.621 1265.71 831.79 1268.47L885.251 1303.85C889.42 1306.61 889.083 1312.87 884.644 1315.13L827.558 1344.18Z" stroke="#C1A2FF" stroke-width="3"/>
<path opacity="0.2" d="M659.534 1263.78C655.061 1261.6 654.61 1255.4 658.719 1252.58L711.588 1216.3C715.726 1213.46 721.378 1216.18 721.742 1221.18L726.429 1285.54C726.794 1290.54 721.596 1294.06 717.091 1291.86L659.534 1263.78Z" stroke="#C1A2FF" stroke-width="3"/>
<path opacity="0.2" d="M995.527 1265.84C992.864 1270.1 986.576 1269.85 984.251 1265.4L954.485 1208.28C952.177 1203.86 955.513 1198.59 960.501 1198.79L1024.38 1201.32C1029.37 1201.52 1032.28 1207.03 1029.64 1211.26L995.527 1265.84Z" stroke="#C1A2FF" stroke-width="3"/>
<path opacity="0.2" d="M1024.65 1066.72C1019.83 1065.49 1018.14 1059.5 1021.6 1055.9L1066.1 1009.57C1069.58 1005.95 1075.65 1007.46 1077.01 1012.28L1094.51 1074.35C1095.87 1079.18 1091.49 1083.69 1086.64 1082.46L1024.65 1066.72Z" stroke="#C1A2FF" stroke-width="3"/>
<path opacity="0.2" d="M507.485 1073.6C504.485 1069.6 506.888 1063.85 511.822 1063.23L575.257 1055.24C580.215 1054.62 584.007 1059.63 582.073 1064.26L557.209 1123.71C555.275 1128.33 549.071 1129.09 546.057 1125.07L507.485 1073.6Z" stroke="#C1A2FF" stroke-width="3"/>
<path opacity="0.2" d="M359.887 1021.6C356.887 1017.6 359.29 1011.85 364.223 1011.23L427.659 1003.24C432.617 1002.62 436.408 1007.63 434.474 1012.26L409.611 1071.71C407.677 1076.33 401.473 1077.09 398.458 1073.07L359.887 1021.6Z" stroke="#C1A2FF" stroke-width="3"/>
<path opacity="0.2" d="M466.871 749.602C463.871 745.6 466.274 739.854 471.207 739.233L534.643 731.243C539.601 730.619 543.392 735.633 541.459 740.257L516.595 799.71C514.661 804.334 508.457 805.088 505.442 801.066L466.871 749.602Z" stroke="#C1A2FF" stroke-width="3"/>
<path opacity="0.2" d="M448.238 548.693C450.211 544.065 456.459 543.323 459.443 547.362L497.656 599.097C500.619 603.109 498.136 608.836 493.179 609.425L429.69 616.964C424.733 617.553 421.001 612.564 422.961 607.968L448.238 548.693Z" stroke="#C1A2FF" stroke-width="3"/>
<path opacity="0.2" d="M304.799 707.758C308.4 704.271 314.433 706.04 315.624 710.931L330.883 773.6C332.067 778.463 327.572 782.769 322.78 781.365L261.389 763.37C256.597 761.965 255.087 755.898 258.666 752.432L304.799 707.758Z" stroke="#C1A2FF" stroke-width="3"/>
<path opacity="0.2" d="M317.348 937.726C322.272 938.417 324.594 944.195 321.539 948.154L282.258 999.068C279.188 1003.05 272.994 1002.21 271.125 997.556L247.088 937.758C245.218 933.107 249.08 928.147 254.029 928.842L317.348 937.726Z" stroke="#C1A2FF" stroke-width="3"/>
<path opacity="0.2" d="M127.177 885.429C130.006 881.277 136.278 881.777 138.426 886.326L165.927 944.583C168.06 949.1 164.52 954.228 159.544 953.831L95.816 948.747C90.8397 948.35 88.1419 942.723 90.9509 938.6L127.177 885.429Z" stroke="#C1A2FF" stroke-width="3"/>
<path opacity="0.2" d="M66.7043 636.494C70.0996 632.801 76.228 634.215 77.6978 639.029L96.5259 700.701C97.9864 705.485 93.7466 710.044 88.8813 708.922L26.5607 694.547C21.6954 693.425 19.838 687.458 23.2118 683.79L66.7043 636.494Z" stroke="#C1A2FF" stroke-width="3"/>
<path opacity="0.2" d="M81.5379 1127.02C83.3728 1122.34 89.5949 1121.4 92.6973 1125.35L132.432 1175.9C135.513 1179.83 133.203 1185.63 128.265 1186.36L65.0292 1195.83C60.0917 1196.56 56.2138 1191.69 58.0364 1187.04L81.5379 1127.02Z" stroke="#C1A2FF" stroke-width="3"/>
<path opacity="0.2" d="M147.114 1255.71C149.645 1251.36 155.938 1251.41 158.399 1255.8L189.907 1311.95C192.35 1316.3 189.178 1321.67 184.186 1321.63L120.261 1321.1C115.27 1321.06 112.185 1315.64 114.698 1311.33L147.114 1255.71Z" stroke="#C1A2FF" stroke-width="3"/>
<path opacity="0.2" d="M241.222 1547.49C245.9 1545.76 250.685 1549.8 249.83 1554.75L238.847 1618.33C237.992 1623.27 232.15 1625.43 228.327 1622.2L179.279 1580.81C175.456 1577.59 176.518 1571.4 181.19 1569.67L241.222 1547.49Z" stroke="#C1A2FF" stroke-width="3"/>
<path opacity="0.2" d="M401.759 1252.51C405.175 1248.84 411.295 1250.29 412.737 1255.11L431.212 1316.89C432.645 1321.68 428.379 1326.22 423.521 1325.07L361.283 1310.33C356.425 1309.18 354.602 1303.2 357.996 1299.55L401.759 1252.51Z" stroke="#C1A2FF" stroke-width="3"/>
<path opacity="0.2" d="M539.595 1440.45C544.569 1440.36 547.763 1445.72 545.355 1450.11L514.408 1506.58C511.992 1510.99 505.752 1511.12 503.187 1506.82L470.217 1451.53C467.651 1447.23 470.688 1441.72 475.678 1441.63L539.595 1440.45Z" stroke="#C1A2FF" stroke-width="3"/>
<path opacity="0.2" d="M402.922 1735.18C406.612 1738.54 405.325 1744.63 400.598 1746.17L339.781 1766.06C335.023 1767.61 330.354 1763.41 331.392 1758.5L344.741 1695.39C345.779 1690.49 351.741 1688.57 355.455 1691.96L402.922 1735.18Z" stroke="#C1A2FF" stroke-width="3"/>
<path opacity="0.2" d="M389.749 1939.79C392.749 1943.79 390.347 1949.54 385.414 1950.16L321.98 1958.16C317.022 1958.79 313.229 1953.77 315.162 1949.15L340.016 1889.69C341.949 1885.07 348.152 1884.31 351.168 1888.33L389.749 1939.79Z" stroke="#C1A2FF" stroke-width="3"/>
<path opacity="0.2" d="M242.551 1978.46C246.527 1981.47 245.793 1987.64 241.224 1989.62L182.447 2014.99C177.847 2016.98 172.816 2013.22 173.408 2008.24L181.029 1944.16C181.622 1939.18 187.391 1936.73 191.394 1939.76L242.551 1978.46Z" stroke="#C1A2FF" stroke-width="3"/>
<path opacity="0.2" d="M253.87 2251.74C255.73 2256.4 251.903 2261.34 246.975 2260.64L183.678 2251.59C178.741 2250.89 176.403 2245.06 179.471 2241.1L218.876 2190.28C221.944 2186.33 228.115 2187.22 229.978 2191.89L253.87 2251.74Z" stroke="#C1A2FF" stroke-width="3"/>
<path opacity="0.2" d="M118.489 2330.69C122.722 2333.31 122.555 2339.53 118.186 2341.92L61.9761 2372.65C57.5765 2375.06 52.2229 2371.78 52.3579 2366.77L54.0949 2302.26C54.2299 2297.25 59.7518 2294.27 64.0155 2296.92L118.489 2330.69Z" stroke="#C1A2FF" stroke-width="3"/>
<path opacity="0.2" d="M349.117 2421.61C348.873 2426.63 343.302 2429.53 339.11 2426.8L285.373 2391.84C281.198 2389.13 281.523 2382.87 285.958 2380.57L342.815 2351.07C347.25 2348.77 352.478 2352.14 352.236 2357.15L349.117 2421.61Z" stroke="#C1A2FF" stroke-width="3"/>
<path opacity="0.2" d="M412 2195.66C414.247 2200.14 410.857 2205.38 405.889 2205.1L342.059 2201.55C337.077 2201.27 334.246 2195.66 336.967 2191.46L371.93 2137.43C374.651 2133.22 380.879 2133.59 383.132 2138.08L412 2195.66Z" stroke="#C1A2FF" stroke-width="3"/>
<path opacity="0.2" d="M476.325 1993.94C472.969 1997.67 466.826 1996.32 465.305 1991.52L445.826 1930.06C444.315 1925.29 448.506 1920.69 453.383 1921.76L515.852 1935.46C520.729 1936.53 522.65 1942.47 519.315 1946.18L476.325 1993.94Z" stroke="#C1A2FF" stroke-width="3"/>
<path opacity="0.2" d="M581.667 1797.67C584.258 1801.95 581.297 1807.44 576.324 1807.56L512.416 1809.14C507.425 1809.27 504.154 1803.9 506.534 1799.49L537.132 1742.83C539.512 1738.42 545.754 1738.29 548.356 1742.59L581.667 1797.67Z" stroke="#C1A2FF" stroke-width="3"/>
<path opacity="0.2" d="M1763.05 1287.94C1761.78 1292.85 1755.66 1294.51 1752.13 1290.91L1707 1244.94C1703.52 1241.4 1705.16 1235.39 1709.96 1234.08L1771.28 1217.38C1776.08 1216.07 1780.48 1220.43 1779.23 1225.26L1763.05 1287.94Z" stroke="#C1A2FF" stroke-width="3"/>
<path opacity="0.2" d="M1572.33 1451.18C1569.48 1455.35 1563.16 1454.78 1561.06 1450.16L1534.21 1391.22C1532.14 1386.68 1535.72 1381.62 1540.67 1382.07L1603.89 1387.81C1608.85 1388.26 1611.51 1393.88 1608.71 1397.98L1572.33 1451.18Z" stroke="#C1A2FF" stroke-width="3"/>
<path opacity="0.2" d="M1424.83 1651.18C1421.98 1655.35 1415.66 1654.78 1413.55 1650.16L1386.71 1591.22C1384.64 1586.68 1388.21 1581.62 1393.17 1582.07L1456.39 1587.81C1461.34 1588.26 1464.01 1593.88 1461.21 1597.98L1424.83 1651.18Z" stroke="#C1A2FF" stroke-width="3"/>
<path opacity="0.2" d="M1756.17 1555.68C1751.54 1557.56 1746.65 1553.6 1747.39 1548.58L1756.92 1484.35C1757.66 1479.37 1763.4 1477.08 1767.28 1480.22L1816.94 1520.43C1820.82 1523.57 1819.94 1529.8 1815.35 1531.66L1756.17 1555.68Z" stroke="#C1A2FF" stroke-width="3"/>
<path opacity="0.2" d="M1621.21 1730.47C1617.43 1733.79 1611.47 1731.64 1610.57 1726.64L1598.99 1662.75C1598.1 1657.83 1602.8 1653.81 1607.48 1655.5L1667.31 1677.06C1672 1678.75 1673.19 1684.88 1669.47 1688.15L1621.21 1730.47Z" stroke="#C1A2FF" stroke-width="3"/>
<path opacity="0.2" d="M1658.62 2006.09C1657.86 2011.1 1651.96 2013.39 1648.08 2010.19L1598.53 1969.19C1594.7 1966.03 1595.72 1959.88 1600.36 1958.07L1659.65 1935.02C1664.29 1933.21 1669.11 1937.1 1668.36 1942.04L1658.62 2006.09Z" stroke="#C1A2FF" stroke-width="3"/>
<path opacity="0.2" d="M1054.7 1561.05C1051.25 1564.71 1045.11 1563.15 1043.73 1558.26L1026.2 1495.8C1024.84 1490.99 1029.14 1486.55 1033.97 1487.77L1095.55 1503.4C1100.38 1504.63 1102.15 1510.61 1098.75 1514.22L1054.7 1561.05Z" stroke="#C1A2FF" stroke-width="3"/>
<path opacity="0.2" d="M867.865 1441.05C864.415 1444.71 858.267 1443.15 856.894 1438.26L839.358 1375.8C838.006 1370.99 842.305 1366.55 847.129 1367.77L908.715 1383.4C913.539 1384.63 915.309 1390.61 911.914 1394.22L867.865 1441.05Z" stroke="#C1A2FF" stroke-width="3"/>
<path opacity="0.2" d="M808.863 1091.05C805.413 1094.72 799.266 1093.16 797.892 1088.26L780.356 1025.8C779.004 1020.99 783.303 1016.55 788.127 1017.77L849.713 1033.4C854.537 1034.63 856.307 1040.61 852.912 1044.22L808.863 1091.05Z" stroke="#C1A2FF" stroke-width="3"/>
<path opacity="0.2" d="M710.527 801.047C707.077 804.715 700.93 803.154 699.557 798.263L682.02 735.802C680.669 730.989 684.968 726.546 689.791 727.77L751.377 743.402C756.201 744.626 757.971 750.609 754.576 754.218L710.527 801.047Z" stroke="#C1A2FF" stroke-width="3"/>
<path opacity="0.2" d="M940.795 698.465C935.852 698.952 932.28 693.812 934.368 689.217L961.166 630.249C963.252 625.659 969.425 625.056 972.279 629.164L1008.91 681.882C1011.77 685.99 1009.17 691.729 1004.23 692.216L940.795 698.465Z" stroke="#C1A2FF" stroke-width="3"/>
<path opacity="0.2" d="M1717.65 658.465C1712.71 658.952 1709.13 653.812 1711.22 649.217L1738.02 590.249C1740.11 585.659 1746.28 585.056 1749.13 589.164L1785.77 641.882C1788.62 645.99 1786.02 651.729 1781.08 652.216L1717.65 658.465Z" stroke="#C1A2FF" stroke-width="3"/>
<path opacity="0.2" d="M63.504 1810.95C58.5615 1811.43 54.9894 1806.29 57.0774 1801.7L83.8756 1742.73C85.9617 1738.14 92.1339 1737.54 94.9884 1741.65L131.623 1794.36C134.477 1798.47 131.874 1804.21 126.937 1804.7L63.504 1810.95Z" stroke="#C1A2FF" stroke-width="3"/>
<path opacity="0.2" d="M53.6134 1512.77C50.5356 1508.82 52.8281 1503.02 57.7487 1502.31L120.999 1493.23C125.939 1492.52 129.821 1497.47 127.978 1502.13L104.29 1562.02C102.447 1566.68 96.266 1567.54 93.1758 1563.58L53.6134 1512.77Z" stroke="#C1A2FF" stroke-width="3"/>
<path opacity="0.2" d="M1648.44 423.978C1643.59 425.109 1639.35 420.517 1640.8 415.71L1659.49 353.993C1660.94 349.184 1667.01 347.766 1670.41 351.442L1714.01 398.635C1717.41 402.311 1715.58 408.322 1710.73 409.454L1648.44 423.978Z" stroke="#C1A2FF" stroke-width="3"/>
<path opacity="0.2" d="M1453.32 336.067C1451.81 331.278 1456 326.639 1460.86 327.714L1523.31 341.527C1528.18 342.603 1530.07 348.594 1526.71 352.308L1483.64 399.995C1480.29 403.709 1474.2 402.36 1472.69 397.567L1453.32 336.067Z" stroke="#C1A2FF" stroke-width="3"/>
<path opacity="0.2" d="M1575.07 129.996C1571.39 126.615 1572.71 120.537 1577.45 119.017L1638.37 99.4678C1643.14 97.9383 1647.79 102.168 1646.72 107.068L1633.03 170.105C1631.97 175.005 1625.99 176.885 1622.3 173.482L1575.07 129.996Z" stroke="#C1A2FF" stroke-width="3"/>
<path opacity="0.2" d="M1385.83 92.7953C1384.08 88.0896 1388.03 83.2482 1392.94 84.0743L1456 94.6843C1460.92 95.5116 1463.11 101.4 1459.95 105.279L1419.32 155.102C1416.15 158.982 1410.01 157.94 1408.26 153.228L1385.83 92.7953Z" stroke="#C1A2FF" stroke-width="3"/>
<path opacity="0.2" d="M1230.68 108.629C1225.76 107.932 1223.44 102.151 1226.5 98.1955L1265.84 47.3298C1268.92 43.3538 1275.11 44.2024 1276.98 48.8552L1300.94 108.683C1302.8 113.336 1298.94 118.291 1293.99 117.591L1230.68 108.629Z" stroke="#C1A2FF" stroke-width="3"/>
<path opacity="0.2" d="M940.882 130.647C940.005 125.653 944.774 121.554 949.437 123.294L1009.18 145.581C1013.82 147.31 1014.87 153.517 1011.09 156.772L962.57 198.476C958.783 201.731 952.982 199.603 952.111 194.639L940.882 130.647Z" stroke="#C1A2FF" stroke-width="3"/>
<path opacity="0.2" d="M577.039 270.647C576.162 265.653 580.931 261.554 585.594 263.294L645.341 285.581C649.976 287.31 651.032 293.517 647.245 296.772L598.727 338.476C594.94 341.731 589.139 339.603 588.268 334.639L577.039 270.647Z" stroke="#C1A2FF" stroke-width="3"/>
<path opacity="0.2" d="M744.21 370.647C743.333 365.653 748.102 361.554 752.765 363.294L812.512 385.581C817.147 387.31 818.203 393.517 814.416 396.772L765.898 438.476C762.111 441.731 756.31 439.603 755.439 434.639L744.21 370.647Z" stroke="#C1A2FF" stroke-width="3"/>
<path opacity="0.2" d="M1816.07 170.647C1815.19 165.653 1819.96 161.554 1824.63 163.294L1884.37 185.581C1889.01 187.31 1890.06 193.517 1886.28 196.772L1837.76 238.476C1833.97 241.731 1828.17 239.603 1827.3 234.639L1816.07 170.647Z" stroke="#C1A2FF" stroke-width="3"/>
<path opacity="0.2" d="M1214.02 268.913C1212.4 264.164 1216.47 259.423 1221.36 260.376L1284.12 272.612C1289.02 273.566 1291.06 279.508 1287.8 283.305L1245.92 332.062C1242.65 335.858 1236.54 334.661 1234.91 329.906L1214.02 268.913Z" stroke="#C1A2FF" stroke-width="3"/>
<path opacity="0.2" d="M1141.92 -26.834C1144.15 -31.3413 1150.43 -31.7229 1153.18 -27.5181L1188.41 26.3307C1191.15 30.506 1188.34 36.08 1183.36 36.3827L1119.55 40.2587C1114.57 40.5613 1111.12 35.3667 1113.34 30.8908L1141.92 -26.834Z" stroke="#C1A2FF" stroke-width="3"/>
<path opacity="0.2" d="M1038.9 247.166C1041.13 242.659 1047.41 242.277 1050.16 246.482L1085.39 300.331C1088.12 304.506 1085.32 310.08 1080.34 310.383L1016.53 314.259C1011.54 314.561 1008.1 309.367 1010.32 304.891L1038.9 247.166Z" stroke="#C1A2FF" stroke-width="3"/>
<path opacity="0.2" d="M1115.39 420.887C1120.22 419.652 1124.56 424.155 1123.2 428.992L1105.81 491.093C1104.46 495.932 1098.42 497.476 1094.95 493.873L1050.37 447.619C1046.9 444.016 1048.59 437.968 1053.42 436.733L1115.39 420.887Z" stroke="#C1A2FF" stroke-width="3"/>
<path opacity="0.2" d="M770.92 146.379C775.749 147.563 777.486 153.538 774.056 157.168L729.931 203.864C726.48 207.516 720.395 206.058 718.996 201.244L700.999 139.32C699.6 134.506 703.939 129.96 708.798 131.151L770.92 146.379Z" stroke="#C1A2FF" stroke-width="3"/>
<path opacity="0.2" d="M389.749 -22.208C392.749 -18.2061 390.347 -12.46 385.414 -11.8378L321.98 -3.83697C317.022 -3.21163 313.229 -8.22517 315.162 -12.8494L340.016 -72.3068C341.949 -76.931 348.152 -77.6863 351.168 -73.6645L389.749 -22.208Z" stroke="#C1A2FF" stroke-width="3"/>
<path opacity="0.2" d="M242.551 16.4634C246.527 19.4712 245.793 25.645 241.224 27.6172L182.447 52.9912C177.847 54.977 172.816 51.2185 173.408 46.2384L181.029 -17.8349C181.622 -22.8151 187.391 -25.2645 191.394 -22.2359L242.551 16.4634Z" stroke="#C1A2FF" stroke-width="3"/>
<path opacity="0.2" d="M253.87 289.746C255.73 294.406 251.903 299.341 246.975 298.637L183.678 289.596C178.741 288.891 176.403 283.058 179.471 279.101L218.876 228.285C221.944 224.328 228.115 225.219 229.978 229.887L253.87 289.746Z" stroke="#C1A2FF" stroke-width="3"/>
<path opacity="0.2" d="M118.489 368.69C122.722 371.315 122.555 377.529 118.186 379.918L61.9761 410.654C57.5765 413.06 52.2229 409.786 52.3579 404.772L54.0949 340.262C54.2299 335.249 59.7518 332.273 64.0155 334.917L118.489 368.69Z" stroke="#C1A2FF" stroke-width="3"/>
<path opacity="0.2" d="M349.117 459.608C348.873 464.636 343.302 467.527 339.11 464.8L285.373 429.844C281.198 427.129 281.523 420.873 285.958 418.572L342.815 389.07C347.25 386.768 352.478 390.143 352.236 395.15L349.117 459.608Z" stroke="#C1A2FF" stroke-width="3"/>
<path opacity="0.2" d="M412 233.66C414.247 238.141 410.857 243.38 405.889 243.103L342.059 239.551C337.077 239.274 334.246 233.661 336.967 229.457L371.93 175.429C374.651 171.224 380.879 171.586 383.132 176.08L412 233.66Z" stroke="#C1A2FF" stroke-width="3"/>
<path opacity="0.2" d="M476.325 31.94C472.969 35.6687 466.826 34.3211 465.305 29.5226L445.826 -31.9423C444.315 -36.71 448.506 -41.3146 453.383 -40.2448L515.852 -26.5419C520.729 -25.4721 522.65 -19.5268 519.315 -15.822L476.325 31.94Z" stroke="#C1A2FF" stroke-width="3"/>
<path opacity="0.2" d="M1658.62 44.0857C1657.86 49.0983 1651.96 51.3934 1648.08 48.1851L1598.53 7.195C1594.7 4.03252 1595.72 -2.12322 1600.36 -3.92784L1659.65 -26.9809C1664.29 -28.7856 1669.11 -24.8986 1668.36 -19.9575L1658.62 44.0857Z" stroke="#C1A2FF" stroke-width="3"/>
</svg>
