<svg width="58" height="67" viewBox="0 0 58 67" fill="none" xmlns="http://www.w3.org/2000/svg">
<path fill-rule="evenodd" clip-rule="evenodd" d="M0.0879454 15.5902C0.0337572 15.5582 0.000488281 15.4997 0.000488281 15.4366V0.178524C0.000488281 0.0408402 0.149282 -0.0448633 0.267595 0.0246743L26.7896 15.6128C28.177 16.4282 29.8155 16.4282 31.2028 15.6128L57.7249 0.0246749C57.8432 -0.0448625 57.9921 0.040841 57.9921 0.178524V15.4366C57.9921 15.4997 57.9587 15.5582 57.9045 15.5902L31.2128 31.3682C29.82 32.1915 28.1723 32.1915 26.7795 31.3682L0.0879454 15.5902ZM1.77375 14.389C1.71956 14.3569 1.68629 14.2985 1.68629 14.2353V3.36451C1.68629 3.22684 1.83508 3.14113 1.9534 3.21068L26.0288 17.3608C27.8945 18.4574 30.0979 18.4574 31.9638 17.3608L56.0391 3.21068C56.1575 3.14113 56.3061 3.22684 56.3061 3.36451V14.2353C56.3061 14.2985 56.2729 14.3569 56.2187 14.389L30.4486 29.6223C29.5361 30.1617 28.4565 30.1617 27.544 29.6223L1.77375 14.389ZM43.494 66.8214C43.494 66.9637 43.6521 67.0487 43.77 66.9699L57.9129 57.511C57.9622 57.4779 57.9921 57.4221 57.9921 57.3625V22.0199C57.9921 21.8821 57.8432 21.7963 57.7249 21.8658L30.959 37.5974C29.7191 38.326 28.2733 38.326 27.0334 37.5974L16.2675 31.2697C16.1705 31.2127 16.0498 31.2158 15.9559 31.2777L0.107353 41.7169C0.0406621 41.7607 0.000488281 41.8355 0.000488281 41.9155V57.3625C0.000488281 57.4221 0.0301786 57.4779 0.0795978 57.511L14.2225 66.9699C14.3405 67.0487 14.4984 66.9637 14.4984 66.8214V48.5141C14.4984 48.3763 14.6475 48.2906 14.7659 48.3605L27.0244 55.6068C28.2694 56.3428 29.7232 56.3428 30.9682 55.6068L43.2267 48.3605C43.345 48.2906 43.494 48.3763 43.494 48.5141V66.8214ZM12.5367 63.5823C12.6547 63.661 12.8126 63.5761 12.8126 63.4338V45.32C12.8126 45.182 12.9617 45.0962 13.0801 45.1662L27.7887 53.8608C28.5533 54.3127 29.439 54.3127 30.2037 53.8608L44.9124 45.1662C45.0308 45.0962 45.1798 45.182 45.1798 45.32V63.4338C45.1798 63.5761 45.3379 63.661 45.4558 63.5823L56.2271 56.3781C56.2764 56.3452 56.3061 56.2895 56.3061 56.2299V25.2057C56.3061 25.0682 56.1575 24.9824 56.0391 25.0519L31.72 39.3453C30.0016 40.3552 27.9909 40.3552 26.2726 39.3453L16.3128 33.4915C16.2159 33.4346 16.0952 33.4376 16.0012 33.4995L1.79315 42.8581C1.72646 42.9019 1.68629 42.9768 1.68629 43.0568V56.2299C1.68629 56.2895 1.71598 56.3452 1.7654 56.3781L12.5367 63.5823ZM0.274939 37.5917C0.156889 37.669 0.000488281 37.584 0.000488281 37.4424V20.0609C0.000488281 19.9232 0.149284 19.8375 0.267597 19.9071L14.2506 28.1255C14.3645 28.1924 14.3684 28.3562 14.258 28.4286L0.274939 37.5917ZM1.68629 23.2469C1.68629 23.1093 1.83508 23.0235 1.9534 23.0931L10.6755 28.2193C10.7893 28.2863 10.7933 28.4502 10.6828 28.5226L1.96074 34.2382C1.84269 34.3155 1.68629 34.2304 1.68629 34.0889V23.2469Z" fill="#A081E2"/>
</svg>
