<svg width="339" height="626" viewBox="0 0 339 626" fill="none" xmlns="http://www.w3.org/2000/svg">
<path d="M143.737 223.416C181.382 223.416 214.812 230.58 244.029 244.908C273.527 259.235 296.704 280.305 313.559 308.117C330.415 335.929 338.843 370.203 338.843 410.938C338.843 455.325 329.572 493.672 311.031 525.979C292.771 558.005 265.38 582.586 228.859 599.723C192.619 616.86 147.389 625.428 93.1695 625.428C60.8625 625.428 30.3815 622.619 1.7266 617C-26.6474 611.662 -51.5097 603.375 -72.8604 592.138V479.625C-51.5097 490.862 -25.9451 500.414 3.83358 508.28C33.8931 515.865 62.1266 519.658 88.5341 519.658C114.38 519.658 136.152 516.286 153.85 509.544C171.549 502.521 184.893 491.845 193.883 477.518C203.154 462.91 207.789 444.368 207.789 421.894C207.789 391.834 197.676 368.798 177.449 352.785C157.222 336.772 126.179 328.765 84.3201 328.765C68.3071 328.765 51.5918 330.31 34.1741 333.401C17.0373 336.491 2.70985 339.581 -8.80829 342.671L-60.64 314.859L-37.4632 0.919546H296.704V111.325H76.735L65.3573 232.266C74.909 230.299 85.3034 228.333 96.5406 226.366C107.778 224.4 123.51 223.416 143.737 223.416Z" fill="#F4F1FC"/>
</svg>
