<svg width="433" height="634" viewBox="0 0 433 634" fill="none" xmlns="http://www.w3.org/2000/svg">
<path d="M216.938 0.913028C252.335 0.913028 284.923 6.39117 314.702 17.3475C344.761 28.3037 368.781 44.8786 386.76 67.0721C404.74 88.9847 413.73 116.516 413.73 149.666C413.73 174.388 408.813 196.019 398.981 214.561C389.429 233.102 376.366 249.396 359.791 263.443C343.216 277.208 324.394 289.288 303.324 299.683C325.237 311.201 346.025 324.685 365.691 340.137C385.356 355.307 401.369 373.146 413.73 393.654C426.371 414.162 432.692 438.041 432.692 465.291C432.692 499.565 423.562 529.343 405.302 554.627C387.041 579.63 361.757 599.014 329.45 612.78C297.143 626.545 259.639 633.428 216.938 633.428C170.865 633.428 131.675 626.826 99.3685 613.622C67.0615 600.419 42.4801 581.596 25.6242 557.155C8.7684 532.433 0.340487 502.936 0.340487 468.662C0.340487 440.569 5.5377 416.128 15.9321 395.339C26.6075 374.551 40.9349 356.711 58.9145 341.822C76.894 326.652 96.6996 313.729 118.331 303.054C100.071 291.536 83.3554 278.472 68.1852 263.864C53.2959 249.256 41.3563 232.54 32.3666 213.718C23.6577 194.895 19.3033 173.264 19.3033 148.823C19.3033 116.235 28.4335 88.9847 46.694 67.0721C65.2354 45.1596 89.5359 28.7251 119.595 17.7689C149.655 6.53164 182.102 0.913028 216.938 0.913028ZM120.86 461.077C120.86 483.271 128.726 501.672 144.458 516.28C160.471 530.607 184.069 537.771 215.252 537.771C247.559 537.771 271.719 530.888 287.732 517.123C303.745 503.076 311.752 484.675 311.752 461.92C311.752 446.188 307.117 432.422 297.846 420.623C288.856 408.824 277.478 398.289 263.713 389.018C249.947 379.467 236.041 370.617 221.995 362.471L210.617 356.571C192.637 364.718 176.905 373.848 163.421 383.962C150.217 394.075 139.822 405.453 132.237 418.095C124.652 430.737 120.86 445.064 120.86 461.077ZM216.095 96.1484C194.744 96.1484 177.046 101.627 162.999 112.583C148.953 123.539 141.929 138.99 141.929 158.936C141.929 172.983 145.301 185.344 152.043 196.019C159.066 206.414 168.196 215.544 179.434 223.41C190.952 231.276 203.453 238.58 216.938 245.323C229.861 239.142 241.941 232.259 253.178 224.674C264.415 217.089 273.545 207.959 280.569 197.283C287.592 186.608 291.103 173.826 291.103 158.936C291.103 138.99 283.94 123.539 269.612 112.583C255.566 101.627 237.727 96.1484 216.095 96.1484Z" fill="#F4F1FC"/>
</svg>
